<mxfile host="app.diagrams.net" modified="2024-06-06T00:43:38.473Z" agent="Mozilla/5.0 (Windows NT 10.0; Win64; x64) AppleWebKit/537.36 (KHTML, like Gecko) Chrome/125.0.0.0 Safari/537.36" etag="r9eVqAMvQwqy71cxsEdd" version="24.4.14" type="device">
  <diagram name="Page-1" id="0JsIFbICjY9vfzUi1FHO">
    <mxGraphModel dx="2867" dy="1238" grid="1" gridSize="10" guides="1" tooltips="1" connect="1" arrows="1" fold="1" page="1" pageScale="1" pageWidth="850" pageHeight="1100" math="0" shadow="0">
      <root>
        <mxCell id="0" />
        <mxCell id="1" parent="0" />
        <mxCell id="DiiHVO88nu7Cxb9beNmu-351" value="User Accesses Shipping Form" style="whiteSpace=wrap;strokeWidth=2;" vertex="1" parent="1">
          <mxGeometry x="974" y="840" width="219" height="33" as="geometry" />
        </mxCell>
        <mxCell id="DiiHVO88nu7Cxb9beNmu-352" value="Display Form Layout" style="whiteSpace=wrap;strokeWidth=2;" vertex="1" parent="1">
          <mxGeometry x="1004" y="923" width="160" height="33" as="geometry" />
        </mxCell>
        <mxCell id="DiiHVO88nu7Cxb9beNmu-353" value="User Enters Full Name" style="whiteSpace=wrap;strokeWidth=2;" vertex="1" parent="1">
          <mxGeometry x="20" y="1007" width="174" height="33" as="geometry" />
        </mxCell>
        <mxCell id="DiiHVO88nu7Cxb9beNmu-354" value="User Enters Street Address" style="whiteSpace=wrap;strokeWidth=2;" vertex="1" parent="1">
          <mxGeometry x="244" y="1007" width="205" height="33" as="geometry" />
        </mxCell>
        <mxCell id="DiiHVO88nu7Cxb9beNmu-355" value="User Enters Apt/Suite/Unit" style="whiteSpace=wrap;strokeWidth=2;" vertex="1" parent="1">
          <mxGeometry x="498" y="1007" width="208" height="33" as="geometry" />
        </mxCell>
        <mxCell id="DiiHVO88nu7Cxb9beNmu-356" value="User Enters City" style="whiteSpace=wrap;strokeWidth=2;" vertex="1" parent="1">
          <mxGeometry x="893" y="1007" width="131" height="33" as="geometry" />
        </mxCell>
        <mxCell id="DiiHVO88nu7Cxb9beNmu-357" value="User Selects State/Province/Region" style="whiteSpace=wrap;strokeWidth=2;" vertex="1" parent="1">
          <mxGeometry x="1074" y="1007" width="269" height="33" as="geometry" />
        </mxCell>
        <mxCell id="DiiHVO88nu7Cxb9beNmu-358" value="User Enters Postal/ZIP Code" style="whiteSpace=wrap;strokeWidth=2;" vertex="1" parent="1">
          <mxGeometry x="1394" y="1007" width="215" height="33" as="geometry" />
        </mxCell>
        <mxCell id="DiiHVO88nu7Cxb9beNmu-359" value="User Selects Country" style="whiteSpace=wrap;strokeWidth=2;" vertex="1" parent="1">
          <mxGeometry x="1659" y="1007" width="164" height="33" as="geometry" />
        </mxCell>
        <mxCell id="DiiHVO88nu7Cxb9beNmu-360" value="User Enters Phone Number" style="whiteSpace=wrap;strokeWidth=2;" vertex="1" parent="1">
          <mxGeometry x="1873" y="1007" width="206" height="33" as="geometry" />
        </mxCell>
        <mxCell id="DiiHVO88nu7Cxb9beNmu-361" value="Validate Full Name" style="whiteSpace=wrap;strokeWidth=2;" vertex="1" parent="1">
          <mxGeometry x="31" y="1090" width="151" height="33" as="geometry" />
        </mxCell>
        <mxCell id="DiiHVO88nu7Cxb9beNmu-362" value="Validate Street Address" style="whiteSpace=wrap;strokeWidth=2;" vertex="1" parent="1">
          <mxGeometry x="255" y="1090" width="182" height="33" as="geometry" />
        </mxCell>
        <mxCell id="DiiHVO88nu7Cxb9beNmu-363" value="Validate Apt/Suite/Unit" style="whiteSpace=wrap;strokeWidth=2;" vertex="1" parent="1">
          <mxGeometry x="510" y="1090" width="186" height="33" as="geometry" />
        </mxCell>
        <mxCell id="DiiHVO88nu7Cxb9beNmu-364" value="Validate City" style="whiteSpace=wrap;strokeWidth=2;" vertex="1" parent="1">
          <mxGeometry x="905" y="1090" width="108" height="33" as="geometry" />
        </mxCell>
        <mxCell id="DiiHVO88nu7Cxb9beNmu-365" value="Validate State/Province/Region" style="whiteSpace=wrap;strokeWidth=2;" vertex="1" parent="1">
          <mxGeometry x="1088" y="1090" width="241" height="33" as="geometry" />
        </mxCell>
        <mxCell id="DiiHVO88nu7Cxb9beNmu-366" value="Validate Postal/ZIP Code" style="whiteSpace=wrap;strokeWidth=2;" vertex="1" parent="1">
          <mxGeometry x="1405" y="1090" width="193" height="33" as="geometry" />
        </mxCell>
        <mxCell id="DiiHVO88nu7Cxb9beNmu-367" value="Validate Country" style="whiteSpace=wrap;strokeWidth=2;" vertex="1" parent="1">
          <mxGeometry x="1673" y="1090" width="136" height="33" as="geometry" />
        </mxCell>
        <mxCell id="DiiHVO88nu7Cxb9beNmu-368" value="Validate Phone Number" style="whiteSpace=wrap;strokeWidth=2;" vertex="1" parent="1">
          <mxGeometry x="1884" y="1090" width="184" height="33" as="geometry" />
        </mxCell>
        <mxCell id="DiiHVO88nu7Cxb9beNmu-369" value="Validation Failed?" style="rhombus;strokeWidth=2;whiteSpace=wrap;" vertex="1" parent="1">
          <mxGeometry x="802" y="1174" width="176" height="176" as="geometry" />
        </mxCell>
        <mxCell id="DiiHVO88nu7Cxb9beNmu-370" value="Show Error Message Below Input Field" style="whiteSpace=wrap;strokeWidth=2;" vertex="1" parent="1">
          <mxGeometry x="658" y="1418" width="286" height="33" as="geometry" />
        </mxCell>
        <mxCell id="DiiHVO88nu7Cxb9beNmu-371" value="User Corrects Input" style="whiteSpace=wrap;strokeWidth=2;" vertex="1" parent="1">
          <mxGeometry x="724" y="1519" width="154" height="33" as="geometry" />
        </mxCell>
        <mxCell id="DiiHVO88nu7Cxb9beNmu-372" value="Validation Successful?" style="rhombus;strokeWidth=2;whiteSpace=wrap;" vertex="1" parent="1">
          <mxGeometry x="787" y="1603" width="205" height="205" as="geometry" />
        </mxCell>
        <mxCell id="DiiHVO88nu7Cxb9beNmu-373" value="Check if All Inputs Validated" style="whiteSpace=wrap;strokeWidth=2;" vertex="1" parent="1">
          <mxGeometry x="959" y="1876" width="217" height="33" as="geometry" />
        </mxCell>
        <mxCell id="DiiHVO88nu7Cxb9beNmu-374" value="User Submits Form" style="whiteSpace=wrap;strokeWidth=2;" vertex="1" parent="1">
          <mxGeometry x="862" y="1978" width="149" height="33" as="geometry" />
        </mxCell>
        <mxCell id="DiiHVO88nu7Cxb9beNmu-375" value="Store Shipping Information" style="whiteSpace=wrap;strokeWidth=2;" vertex="1" parent="1">
          <mxGeometry x="833" y="2061" width="206" height="33" as="geometry" />
        </mxCell>
        <mxCell id="DiiHVO88nu7Cxb9beNmu-376" value="Wait for User to Complete All Inputs" style="whiteSpace=wrap;strokeWidth=2;" vertex="1" parent="1">
          <mxGeometry x="1061" y="1978" width="275" height="33" as="geometry" />
        </mxCell>
        <mxCell id="DiiHVO88nu7Cxb9beNmu-377" value="" style="curved=1;startArrow=none;endArrow=block;exitX=0.5013431392303885;exitY=1.0121212583599668;entryX=0.4987134218215942;entryY=0.012121258359966856;rounded=0;" edge="1" parent="1" source="DiiHVO88nu7Cxb9beNmu-351" target="DiiHVO88nu7Cxb9beNmu-352">
          <mxGeometry relative="1" as="geometry">
            <Array as="points" />
          </mxGeometry>
        </mxCell>
        <mxCell id="DiiHVO88nu7Cxb9beNmu-378" value="" style="curved=1;startArrow=none;endArrow=block;exitX=-0.001389145851135254;exitY=0.6216751331338142;entryX=0.49888650302229254;entryY=-0.006060513583096591;rounded=0;" edge="1" parent="1" source="DiiHVO88nu7Cxb9beNmu-352" target="DiiHVO88nu7Cxb9beNmu-353">
          <mxGeometry relative="1" as="geometry">
            <Array as="points">
              <mxPoint x="107" y="982" />
            </Array>
          </mxGeometry>
        </mxCell>
        <mxCell id="DiiHVO88nu7Cxb9beNmu-379" value="" style="curved=1;startArrow=none;endArrow=block;exitX=-0.001389145851135254;exitY=0.6552184815557246;entryX=0.49731709550066694;entryY=-0.006060513583096591;rounded=0;" edge="1" parent="1" source="DiiHVO88nu7Cxb9beNmu-352" target="DiiHVO88nu7Cxb9beNmu-354">
          <mxGeometry relative="1" as="geometry">
            <Array as="points">
              <mxPoint x="346" y="982" />
            </Array>
          </mxGeometry>
        </mxCell>
        <mxCell id="DiiHVO88nu7Cxb9beNmu-380" value="" style="curved=1;startArrow=none;endArrow=block;exitX=-0.001389145851135254;exitY=0.728228602077772;entryX=0.502005723806528;entryY=-0.006060513583096591;rounded=0;" edge="1" parent="1" source="DiiHVO88nu7Cxb9beNmu-352" target="DiiHVO88nu7Cxb9beNmu-355">
          <mxGeometry relative="1" as="geometry">
            <Array as="points">
              <mxPoint x="602" y="982" />
            </Array>
          </mxGeometry>
        </mxCell>
        <mxCell id="DiiHVO88nu7Cxb9beNmu-381" value="" style="curved=1;startArrow=none;endArrow=block;exitX=0.1857028137897018;exitY=1.0242425167199336;entryX=0.5018309382081941;entryY=-0.006060513583096591;rounded=0;" edge="1" parent="1" source="DiiHVO88nu7Cxb9beNmu-352" target="DiiHVO88nu7Cxb9beNmu-356">
          <mxGeometry relative="1" as="geometry">
            <Array as="points">
              <mxPoint x="959" y="982" />
            </Array>
          </mxGeometry>
        </mxCell>
        <mxCell id="DiiHVO88nu7Cxb9beNmu-382" value="" style="curved=1;startArrow=none;endArrow=block;exitX=0.8117240298534867;exitY=1.0242425167199336;entryX=0.5012953237086867;entryY=-0.006060513583096591;rounded=0;" edge="1" parent="1" source="DiiHVO88nu7Cxb9beNmu-352" target="DiiHVO88nu7Cxb9beNmu-357">
          <mxGeometry relative="1" as="geometry">
            <Array as="points">
              <mxPoint x="1209" y="982" />
            </Array>
          </mxGeometry>
        </mxCell>
        <mxCell id="DiiHVO88nu7Cxb9beNmu-383" value="" style="curved=1;startArrow=none;endArrow=block;exitX=0.9988159894943237;exitY=0.7604454942538056;entryX=0.4984011627906977;entryY=-0.006060513583096591;rounded=0;" edge="1" parent="1" source="DiiHVO88nu7Cxb9beNmu-352" target="DiiHVO88nu7Cxb9beNmu-358">
          <mxGeometry relative="1" as="geometry">
            <Array as="points">
              <mxPoint x="1501" y="982" />
            </Array>
          </mxGeometry>
        </mxCell>
        <mxCell id="DiiHVO88nu7Cxb9beNmu-384" value="" style="curved=1;startArrow=none;endArrow=block;exitX=0.9988159894943237;exitY=0.6720850141379546;entryX=0.4986375948277915;entryY=-0.006060513583096591;rounded=0;" edge="1" parent="1" source="DiiHVO88nu7Cxb9beNmu-352" target="DiiHVO88nu7Cxb9beNmu-359">
          <mxGeometry relative="1" as="geometry">
            <Array as="points">
              <mxPoint x="1741" y="982" />
            </Array>
          </mxGeometry>
        </mxCell>
        <mxCell id="DiiHVO88nu7Cxb9beNmu-385" value="" style="curved=1;startArrow=none;endArrow=block;exitX=0.9988159894943237;exitY=0.6315106911435822;entryX=0.49995829758134863;entryY=-0.006060513583096591;rounded=0;" edge="1" parent="1" source="DiiHVO88nu7Cxb9beNmu-352" target="DiiHVO88nu7Cxb9beNmu-360">
          <mxGeometry relative="1" as="geometry">
            <Array as="points">
              <mxPoint x="1976" y="982" />
            </Array>
          </mxGeometry>
        </mxCell>
        <mxCell id="DiiHVO88nu7Cxb9beNmu-386" value="" style="curved=1;startArrow=none;endArrow=block;exitX=0.49888650302229254;exitY=1.0060607447768704;entryX=0.5020281558005225;entryY=0.006060744776870265;rounded=0;" edge="1" parent="1" source="DiiHVO88nu7Cxb9beNmu-353" target="DiiHVO88nu7Cxb9beNmu-361">
          <mxGeometry relative="1" as="geometry">
            <Array as="points" />
          </mxGeometry>
        </mxCell>
        <mxCell id="DiiHVO88nu7Cxb9beNmu-387" value="" style="curved=1;startArrow=none;endArrow=block;exitX=0.49731709550066694;exitY=1.0060607447768704;entryX=0.49972529987712483;entryY=0.006060744776870265;rounded=0;" edge="1" parent="1" source="DiiHVO88nu7Cxb9beNmu-354" target="DiiHVO88nu7Cxb9beNmu-362">
          <mxGeometry relative="1" as="geometry">
            <Array as="points" />
          </mxGeometry>
        </mxCell>
        <mxCell id="DiiHVO88nu7Cxb9beNmu-388" value="" style="curved=1;startArrow=none;endArrow=block;exitX=0.502005723806528;exitY=1.0060607447768704;entryX=0.4968666158696657;entryY=0.006060744776870265;rounded=0;" edge="1" parent="1" source="DiiHVO88nu7Cxb9beNmu-355" target="DiiHVO88nu7Cxb9beNmu-363">
          <mxGeometry relative="1" as="geometry">
            <Array as="points" />
          </mxGeometry>
        </mxCell>
        <mxCell id="DiiHVO88nu7Cxb9beNmu-389" value="" style="curved=1;startArrow=none;endArrow=block;exitX=0.5018309382081941;exitY=1.0060607447768704;entryX=0.4975912306043837;entryY=0.006060744776870265;rounded=0;" edge="1" parent="1" source="DiiHVO88nu7Cxb9beNmu-356" target="DiiHVO88nu7Cxb9beNmu-364">
          <mxGeometry relative="1" as="geometry">
            <Array as="points" />
          </mxGeometry>
        </mxCell>
        <mxCell id="DiiHVO88nu7Cxb9beNmu-390" value="" style="curved=1;startArrow=none;endArrow=block;exitX=0.5012953237086867;exitY=1.0060607447768704;entryX=0.5014458177495299;entryY=0.006060744776870265;rounded=0;" edge="1" parent="1" source="DiiHVO88nu7Cxb9beNmu-357" target="DiiHVO88nu7Cxb9beNmu-365">
          <mxGeometry relative="1" as="geometry">
            <Array as="points" />
          </mxGeometry>
        </mxCell>
        <mxCell id="DiiHVO88nu7Cxb9beNmu-391" value="" style="curved=1;startArrow=none;endArrow=block;exitX=0.4984011627906977;exitY=1.0060607447768704;entryX=0.49821891191709844;entryY=0.006060744776870265;rounded=0;" edge="1" parent="1" source="DiiHVO88nu7Cxb9beNmu-358" target="DiiHVO88nu7Cxb9beNmu-366">
          <mxGeometry relative="1" as="geometry">
            <Array as="points" />
          </mxGeometry>
        </mxCell>
        <mxCell id="DiiHVO88nu7Cxb9beNmu-392" value="" style="curved=1;startArrow=none;endArrow=block;exitX=0.4986375948277915;exitY=1.0060607447768704;entryX=0.498357099645278;entryY=0.006060744776870265;rounded=0;" edge="1" parent="1" source="DiiHVO88nu7Cxb9beNmu-359" target="DiiHVO88nu7Cxb9beNmu-367">
          <mxGeometry relative="1" as="geometry">
            <Array as="points" />
          </mxGeometry>
        </mxCell>
        <mxCell id="DiiHVO88nu7Cxb9beNmu-393" value="" style="curved=1;startArrow=none;endArrow=block;exitX=0.49995829758134863;exitY=1.0060607447768704;entryX=0.4999533114225968;entryY=0.006060744776870265;rounded=0;" edge="1" parent="1" source="DiiHVO88nu7Cxb9beNmu-360" target="DiiHVO88nu7Cxb9beNmu-368">
          <mxGeometry relative="1" as="geometry">
            <Array as="points" />
          </mxGeometry>
        </mxCell>
        <mxCell id="DiiHVO88nu7Cxb9beNmu-394" value="" style="curved=1;startArrow=none;endArrow=block;exitX=0.47550632617961364;exitY=1.0181820031368372;entryX=0.0010809248143976386;entryY=0.4254943542070396;rounded=0;" edge="1" parent="1" source="DiiHVO88nu7Cxb9beNmu-361" target="DiiHVO88nu7Cxb9beNmu-369">
          <mxGeometry relative="1" as="geometry">
            <Array as="points">
              <mxPoint x="97" y="1149" />
            </Array>
          </mxGeometry>
        </mxCell>
        <mxCell id="DiiHVO88nu7Cxb9beNmu-395" value="" style="curved=1;startArrow=none;endArrow=block;exitX=0.2586192324541261;exitY=1.0181820031368372;entryX=0.0010809248143976386;entryY=0.4103542747029575;rounded=0;" edge="1" parent="1" source="DiiHVO88nu7Cxb9beNmu-362" target="DiiHVO88nu7Cxb9beNmu-369">
          <mxGeometry relative="1" as="geometry">
            <Array as="points">
              <mxPoint x="236" y="1149" />
            </Array>
          </mxGeometry>
        </mxCell>
        <mxCell id="DiiHVO88nu7Cxb9beNmu-396" value="" style="curved=1;startArrow=none;endArrow=block;exitX=0.24229594247758088;exitY=1.0181820031368372;entryX=0.0010809248143976386;entryY=0.3578113447786128;rounded=0;" edge="1" parent="1" source="DiiHVO88nu7Cxb9beNmu-363" target="DiiHVO88nu7Cxb9beNmu-369">
          <mxGeometry relative="1" as="geometry">
            <Array as="points">
              <mxPoint x="484" y="1149" />
            </Array>
          </mxGeometry>
        </mxCell>
        <mxCell id="DiiHVO88nu7Cxb9beNmu-397" value="" style="curved=1;startArrow=none;endArrow=block;exitX=0.24252737520509665;exitY=1.0181820031368372;entryX=0.4997448270971125;entryY=-0.0022726925936612215;rounded=0;" edge="1" parent="1" source="DiiHVO88nu7Cxb9beNmu-364" target="DiiHVO88nu7Cxb9beNmu-369">
          <mxGeometry relative="1" as="geometry">
            <Array as="points">
              <mxPoint x="890" y="1149" />
            </Array>
          </mxGeometry>
        </mxCell>
        <mxCell id="DiiHVO88nu7Cxb9beNmu-398" value="" style="curved=1;startArrow=none;endArrow=block;exitX=0.3102553571173905;exitY=1.0181820031368372;entryX=0.9984087293798273;entryY=0.2205276969765183;rounded=0;" edge="1" parent="1" source="DiiHVO88nu7Cxb9beNmu-365" target="DiiHVO88nu7Cxb9beNmu-369">
          <mxGeometry relative="1" as="geometry">
            <Array as="points">
              <mxPoint x="1094" y="1149" />
            </Array>
          </mxGeometry>
        </mxCell>
        <mxCell id="DiiHVO88nu7Cxb9beNmu-399" value="" style="curved=1;startArrow=none;endArrow=block;exitX=0.21569629683674085;exitY=1.0181820031368372;entryX=0.9984087293798273;entryY=0.37802033651664824;rounded=0;" edge="1" parent="1" source="DiiHVO88nu7Cxb9beNmu-366" target="DiiHVO88nu7Cxb9beNmu-369">
          <mxGeometry relative="1" as="geometry">
            <Array as="points">
              <mxPoint x="1365" y="1149" />
            </Array>
          </mxGeometry>
        </mxCell>
        <mxCell id="DiiHVO88nu7Cxb9beNmu-400" value="" style="curved=1;startArrow=none;endArrow=block;exitX=0.17499878304842048;exitY=1.0181820031368372;entryX=0.9984087293798273;entryY=0.4205060549486978;rounded=0;" edge="1" parent="1" source="DiiHVO88nu7Cxb9beNmu-367" target="DiiHVO88nu7Cxb9beNmu-369">
          <mxGeometry relative="1" as="geometry">
            <Array as="points">
              <mxPoint x="1631" y="1149" />
            </Array>
          </mxGeometry>
        </mxCell>
        <mxCell id="DiiHVO88nu7Cxb9beNmu-401" value="" style="curved=1;startArrow=none;endArrow=block;exitX=0.2657436363975876;exitY=1.0181820031368372;entryX=0.9984087293798273;entryY=0.4389197279394853;rounded=0;" edge="1" parent="1" source="DiiHVO88nu7Cxb9beNmu-368" target="DiiHVO88nu7Cxb9beNmu-369">
          <mxGeometry relative="1" as="geometry">
            <Array as="points">
              <mxPoint x="1868" y="1149" />
            </Array>
          </mxGeometry>
        </mxCell>
        <mxCell id="DiiHVO88nu7Cxb9beNmu-402" value="Yes" style="curved=1;startArrow=none;endArrow=block;exitX=0.13632051977829332;exitY=0.9950551119717684;entryX=0.5002363111589339;entryY=-0.014251535589044744;rounded=0;" edge="1" parent="1" source="DiiHVO88nu7Cxb9beNmu-369" target="DiiHVO88nu7Cxb9beNmu-370">
          <mxGeometry relative="1" as="geometry">
            <Array as="points">
              <mxPoint x="801" y="1383" />
            </Array>
          </mxGeometry>
        </mxCell>
        <mxCell id="DiiHVO88nu7Cxb9beNmu-403" value="" style="curved=1;startArrow=none;endArrow=block;exitX=0.5002363111589339;exitY=0.9978697227709221;entryX=0.5004388635808771;entryY=0.009990923332445549;rounded=0;" edge="1" parent="1" source="DiiHVO88nu7Cxb9beNmu-370" target="DiiHVO88nu7Cxb9beNmu-371">
          <mxGeometry relative="1" as="geometry">
            <Array as="points" />
          </mxGeometry>
        </mxCell>
        <mxCell id="DiiHVO88nu7Cxb9beNmu-404" value="" style="curved=1;startArrow=none;endArrow=block;exitX=0.5004388635808771;exitY=1.0221121816924124;entryX=0.1535951635121575;entryY=-0.0013185268495141005;rounded=0;" edge="1" parent="1" source="DiiHVO88nu7Cxb9beNmu-371" target="DiiHVO88nu7Cxb9beNmu-372">
          <mxGeometry relative="1" as="geometry">
            <Array as="points">
              <mxPoint x="801" y="1578" />
            </Array>
          </mxGeometry>
        </mxCell>
        <mxCell id="DiiHVO88nu7Cxb9beNmu-405" value="Yes" style="curved=1;startArrow=none;endArrow=block;exitX=0.502219949117521;exitY=0.9993597821491521;entryX=0.23042312754073685;entryY=0.008144089669892282;rounded=0;" edge="1" parent="1" source="DiiHVO88nu7Cxb9beNmu-372" target="DiiHVO88nu7Cxb9beNmu-373">
          <mxGeometry relative="1" as="geometry">
            <Array as="points">
              <mxPoint x="890" y="1842" />
            </Array>
          </mxGeometry>
        </mxCell>
        <mxCell id="DiiHVO88nu7Cxb9beNmu-406" value="No" style="curved=1;startArrow=none;endArrow=block;exitX=0.8508447347228845;exitY=-0.0013185268495141005;entryX=0.8631691344159317;entryY=0.9950551119717684;rounded=0;" edge="1" parent="1" source="DiiHVO88nu7Cxb9beNmu-372" target="DiiHVO88nu7Cxb9beNmu-369">
          <mxGeometry relative="1" as="geometry">
            <Array as="points">
              <mxPoint x="979" y="1578" />
              <mxPoint x="979" y="1383" />
            </Array>
          </mxGeometry>
        </mxCell>
        <mxCell id="DiiHVO88nu7Cxb9beNmu-415" value="All Inputs Validated" style="curved=1;startArrow=none;endArrow=block;exitX=0.30035519706188274;exitY=1.0202653480298591;entryX=0.49803908559299953;entryY=0.0020835182883522725;rounded=0;" edge="1" parent="1" source="DiiHVO88nu7Cxb9beNmu-373" target="DiiHVO88nu7Cxb9beNmu-374">
          <mxGeometry relative="1" as="geometry">
            <Array as="points">
              <mxPoint x="936" y="1944" />
            </Array>
          </mxGeometry>
        </mxCell>
        <mxCell id="DiiHVO88nu7Cxb9beNmu-416" value="" style="curved=1;startArrow=none;endArrow=block;exitX=0.49803908559299953;exitY=1.014204776648319;entryX=0.5010088531716356;entryY=0.014204776648319128;rounded=0;" edge="1" parent="1" source="DiiHVO88nu7Cxb9beNmu-374" target="DiiHVO88nu7Cxb9beNmu-375">
          <mxGeometry relative="1" as="geometry">
            <Array as="points" />
          </mxGeometry>
        </mxCell>
        <mxCell id="DiiHVO88nu7Cxb9beNmu-417" value="Inputs Not Yet Validated" style="curved=1;startArrow=none;endArrow=block;exitX=0.696260718192631;exitY=1.0202653480298591;entryX=0.4983921085704457;entryY=0.0020835182883522725;rounded=0;" edge="1" parent="1" source="DiiHVO88nu7Cxb9beNmu-373" target="DiiHVO88nu7Cxb9beNmu-376">
          <mxGeometry relative="1" as="geometry">
            <Array as="points">
              <mxPoint x="1198" y="1944" />
            </Array>
          </mxGeometry>
        </mxCell>
        <mxCell id="DiiHVO88nu7Cxb9beNmu-419" style="edgeStyle=orthogonalEdgeStyle;rounded=0;orthogonalLoop=1;jettySize=auto;html=1;exitX=0.925;exitY=0.578;exitDx=0;exitDy=0;entryX=0.364;entryY=0.009;entryDx=0;entryDy=0;entryPerimeter=0;exitPerimeter=0;" edge="1" parent="1" source="DiiHVO88nu7Cxb9beNmu-369">
          <mxGeometry relative="1" as="geometry">
            <mxPoint x="919.9999999999995" y="1305.7" as="sourcePoint" />
            <mxPoint x="1023.9880000000003" y="1875.997" as="targetPoint" />
            <Array as="points">
              <mxPoint x="1024" y="1276" />
            </Array>
          </mxGeometry>
        </mxCell>
        <mxCell id="DiiHVO88nu7Cxb9beNmu-420" value="No" style="edgeLabel;html=1;align=center;verticalAlign=middle;resizable=0;points=[];" vertex="1" connectable="0" parent="DiiHVO88nu7Cxb9beNmu-419">
          <mxGeometry x="0.5688" y="3" relative="1" as="geometry">
            <mxPoint as="offset" />
          </mxGeometry>
        </mxCell>
      </root>
    </mxGraphModel>
  </diagram>
</mxfile>
